<?xml version="1.0" encoding="UTF-8" standalone="no"?>
<!-- Generator: Adobe Illustrator 18.1.1, SVG Export Plug-In . SVG Version: 6.00 Build 0)  -->

<svg
   xmlns:dc="http://purl.org/dc/elements/1.1/"
   xmlns:cc="http://creativecommons.org/ns#"
   xmlns:rdf="http://www.w3.org/1999/02/22-rdf-syntax-ns#"
   xmlns:svg="http://www.w3.org/2000/svg"
   xmlns="http://www.w3.org/2000/svg"
   xmlns:sodipodi="http://sodipodi.sourceforge.net/DTD/sodipodi-0.dtd"
   xmlns:inkscape="http://www.inkscape.org/namespaces/inkscape"
   version="1.1"
   id="Capa_1"
   x="0px"
   y="0px"
   viewBox="0 0 49.999999 49.999999"
   xml:space="preserve"
   inkscape:version="0.91 r13725"
   sodipodi:docname="prev.svg"
   width="50"
   height="50"><metadata
     id="metadata43"><rdf:RDF><cc:Work
         rdf:about=""><dc:format>image/svg+xml</dc:format><dc:type
           rdf:resource="http://purl.org/dc/dcmitype/StillImage" /><dc:title /></cc:Work></rdf:RDF></metadata><defs
     id="defs41" /><sodipodi:namedview
     pagecolor="#ffffff"
     bordercolor="#666666"
     borderopacity="1"
     objecttolerance="10"
     gridtolerance="10"
     guidetolerance="10"
     inkscape:pageopacity="0"
     inkscape:pageshadow="2"
     inkscape:window-width="1366"
     inkscape:window-height="718"
     id="namedview39"
     showgrid="false"
     inkscape:zoom="0.96102398"
     inkscape:cx="-118.56152"
     inkscape:cy="92.671501"
     inkscape:window-x="0"
     inkscape:window-y="24"
     inkscape:window-maximized="1"
     inkscape:current-layer="Capa_1" /><g
     id="g3"
     transform="matrix(-0.22865124,0,0,0.22865124,46.189339,3.8106038)"
     style="fill:#ffffff"><g
       id="g5"
       style="fill:#ffffff"><path
         style="fill:#ffffff"
         d="m 51.707,185.343 c -2.741,0 -5.493,-1.044 -7.593,-3.149 -4.194,-4.194 -4.194,-10.981 0,-15.175 L 118.466,92.672 44.114,18.32 c -4.194,-4.194 -4.194,-10.987 0,-15.175 4.194,-4.194 10.987,-4.194 15.18,0 l 81.934,81.934 c 4.194,4.194 4.194,10.987 0,15.175 l -81.934,81.939 c -2.093,2.1 -4.84,3.15 -7.587,3.15 z"
         id="path7"
         inkscape:connector-curvature="0" /></g></g><g
     id="g9"
     transform="translate(0,-135.343)" /><g
     id="g11"
     transform="translate(0,-135.343)" /><g
     id="g13"
     transform="translate(0,-135.343)" /><g
     id="g15"
     transform="translate(0,-135.343)" /><g
     id="g17"
     transform="translate(0,-135.343)" /><g
     id="g19"
     transform="translate(0,-135.343)" /><g
     id="g21"
     transform="translate(0,-135.343)" /><g
     id="g23"
     transform="translate(0,-135.343)" /><g
     id="g25"
     transform="translate(0,-135.343)" /><g
     id="g27"
     transform="translate(0,-135.343)" /><g
     id="g29"
     transform="translate(0,-135.343)" /><g
     id="g31"
     transform="translate(0,-135.343)" /><g
     id="g33"
     transform="translate(0,-135.343)" /><g
     id="g35"
     transform="translate(0,-135.343)" /><g
     id="g37"
     transform="translate(0,-135.343)" /></svg>